<svg xmlns="http://www.w3.org/2000/svg" xml:space="preserve" x="0px" y="0px" style="enable-background:new 0 0 90 90" viewBox="0 0 90 90"><linearGradient id="a" x1="-339.4833" x2="-339.4833" y1="-190.7167" y2="-189.2167" gradientTransform="matrix(60 0 0 60 20414 11443)" gradientUnits="userSpaceOnUse"><stop offset="0" style="stop-color:#67ff81"/><stop offset="1" style="stop-color:#01b41f"/></linearGradient><path d="M58.6 0c9 0 13.5 0 18.4 1.5 5.3 1.9 9.5 6.1 11.4 11.4 1.6 5 1.6 9.5 1.6 18.5v27.2c0 9 0 13.5-1.5 18.4-1.9 5.3-6.1 9.5-11.4 11.4C72.2 90 67.7 90 58.6 90H31.4c-9 0-13.5 0-18.4-1.5-5.3-2-9.5-6.1-11.4-11.5C0 72.2 0 67.7 0 58.6V31.4c0-9 0-13.5 1.5-18.4C3.5 7.7 7.7 3.5 13 1.6 17.9 0 22.4 0 31.4 0h27.2z" style="fill:url(#a)"/><path d="M20.7 39.3c-3.3-6-4.6-10.9-4.6-14.2s.8-4.2 1.6-5c.8-.8 4.5-3 5.2-3.5.6-.4 3-1.3 4.5.9s4.3 6.5 6.3 9.4c3.1 4.1.6 5.9-.2 7-1.5 2-2.3 2.5-2.3 4.9s6.8 9.4 8.4 11.1c1.6 1.7 8.4 7.6 10.5 8 2.1.3 5-1.9 5.6-2.5 3.1-2.4 4.8-.6 6.2.2 1.4.8 7.8 4.8 9.8 6.1 1.9 1.3 1.7 3.4 1.7 3.4s-1.3 3.9-4.3 6.8c-.7.7-2 1.6-5.1 1.6s-6.5-.6-14.5-5c-6.5-3.6-12.7-9.2-16-12.5-3.3-3.2-9-9.8-12.8-16.7z" style="fill:#fff"/></svg>